# xmcd CD database file
#
# Track frame offsets:
#	150
#	17113
#	35170
#	49218
#	67081
#	80502
#	97991
#	112901
#	127577
#	145735
#	160976
#	176509
#	193038
#	207582
#
# Disc length: 2959 seconds
#
# Revision: 0
# Processed by: cddbd v1.5.1PL0 Copyright (c) Steve Scherf et al.
# Submitted via: CdAid (MTCDDB.DLL V2003.12.21)
#
DISCID=c10b8d0e
DTITLE=Os Tiranos - De Um Canto Saudade
DYEAR=2005
DGENRE=Country
TTITLE0=A Minha Gente do Sul
TTITLE1=Campo À Fora
TTITLE2=De Um Canto Saudade
TTITLE3=Esse Teu Jeito
TTITLE4=Lida Bruta
TTITLE5=Chamamé do Amor
TTITLE6=Campesino
TTITLE7=Desdobrando Um Contra-Passo
TTITLE8=Lavando a Ègua
TTITLE9=Na Luz das Estrelas
TTITLE10=Péga pra Capá
TTITLE11=Baile Xucro
TTITLE12=Luxo de Gaúcho
TTITLE13=Pátria Gaúcha e Liberdade
EXTD=ID3G:   2 YEAR: 2005
EXTT0=
EXTT1=
EXTT2=
EXTT3=
EXTT4=
EXTT5=
EXTT6=
EXTT7=
EXTT8=
EXTT9=
EXTT10=
EXTT11=
EXTT12=
EXTT13=
PLAYORDER=
